<mxfile host="app.diagrams.net" agent="Mozilla/5.0 (Macintosh; Intel Mac OS X 10_15_7) AppleWebKit/537.36 (KHTML, like Gecko) Chrome/130.0.0.0 Safari/537.36" version="25.0.3">
  <diagram name="Page-1" id="kuCcoDbh2_VGa9V5DKFY">
    <mxGraphModel dx="920" dy="554" grid="1" gridSize="10" guides="1" tooltips="1" connect="1" arrows="1" fold="1" page="1" pageScale="1" pageWidth="827" pageHeight="1169" math="0" shadow="0">
      <root>
        <mxCell id="0" />
        <mxCell id="1" parent="0" />
        <mxCell id="CL_gljuOMsHu99j0wQHf-1" value="" style="rounded=1;whiteSpace=wrap;html=1;fillColor=#d5e8d4;strokeColor=#82b366;" vertex="1" parent="1">
          <mxGeometry x="90" y="230" width="180" height="400" as="geometry" />
        </mxCell>
        <mxCell id="CL_gljuOMsHu99j0wQHf-6" style="edgeStyle=orthogonalEdgeStyle;rounded=0;orthogonalLoop=1;jettySize=auto;html=1;startArrow=classic;startFill=1;entryX=0.992;entryY=0.126;entryDx=0;entryDy=0;entryPerimeter=0;" edge="1" parent="1" source="CL_gljuOMsHu99j0wQHf-2" target="CL_gljuOMsHu99j0wQHf-11">
          <mxGeometry relative="1" as="geometry">
            <mxPoint x="280" y="300" as="targetPoint" />
          </mxGeometry>
        </mxCell>
        <mxCell id="CL_gljuOMsHu99j0wQHf-2" value="" style="rounded=1;whiteSpace=wrap;html=1;fillColor=#dae8fc;strokeColor=#6c8ebf;" vertex="1" parent="1">
          <mxGeometry x="310" y="230" width="160" height="150" as="geometry" />
        </mxCell>
        <mxCell id="CL_gljuOMsHu99j0wQHf-5" style="edgeStyle=orthogonalEdgeStyle;rounded=0;orthogonalLoop=1;jettySize=auto;html=1;startArrow=classic;startFill=1;entryX=1;entryY=0.713;entryDx=0;entryDy=0;entryPerimeter=0;" edge="1" parent="1" source="CL_gljuOMsHu99j0wQHf-4" target="CL_gljuOMsHu99j0wQHf-1">
          <mxGeometry relative="1" as="geometry" />
        </mxCell>
        <mxCell id="CL_gljuOMsHu99j0wQHf-4" value="" style="rounded=1;whiteSpace=wrap;html=1;fillColor=#fff2cc;strokeColor=#d6b656;" vertex="1" parent="1">
          <mxGeometry x="310" y="400" width="160" height="230" as="geometry" />
        </mxCell>
        <mxCell id="CL_gljuOMsHu99j0wQHf-7" value="Backend API" style="text;html=1;align=center;verticalAlign=middle;resizable=0;points=[];autosize=1;strokeColor=none;fillColor=none;" vertex="1" parent="1">
          <mxGeometry x="345" y="410" width="90" height="30" as="geometry" />
        </mxCell>
        <mxCell id="CL_gljuOMsHu99j0wQHf-8" value="OPEN AI&lt;div&gt;Large Language Model&lt;/div&gt;" style="text;html=1;align=center;verticalAlign=middle;resizable=0;points=[];autosize=1;strokeColor=none;fillColor=none;" vertex="1" parent="1">
          <mxGeometry x="315" y="240" width="150" height="40" as="geometry" />
        </mxCell>
        <mxCell id="CL_gljuOMsHu99j0wQHf-9" value="&lt;font style=&quot;font-size: 24px;&quot;&gt;GPT 3&lt;/font&gt;" style="text;html=1;align=center;verticalAlign=middle;resizable=0;points=[];autosize=1;strokeColor=none;fillColor=none;" vertex="1" parent="1">
          <mxGeometry x="345" y="290" width="90" height="40" as="geometry" />
        </mxCell>
        <mxCell id="CL_gljuOMsHu99j0wQHf-10" value="SitRight Dashboard" style="text;html=1;align=center;verticalAlign=middle;resizable=0;points=[];autosize=1;strokeColor=none;fillColor=none;" vertex="1" parent="1">
          <mxGeometry x="115" y="245" width="130" height="30" as="geometry" />
        </mxCell>
        <mxCell id="CL_gljuOMsHu99j0wQHf-11" value="&lt;div&gt;&lt;font style=&quot;font-size: 16px;&quot;&gt;&lt;span style=&quot;background-color: initial; line-height: 220%;&quot;&gt;Data Visualisation&lt;/span&gt;&lt;/font&gt;&lt;/div&gt;&lt;font style=&quot;font-size: 16px;&quot;&gt;&lt;span style=&quot;background-color: initial; line-height: 220%;&quot;&gt;Posture Monitoring&lt;/span&gt;&lt;br&gt;&lt;span style=&quot;background-color: initial; line-height: 220%;&quot;&gt;Sitting Pattern Analysis&lt;/span&gt;&lt;br&gt;&lt;span style=&quot;background-color: initial; line-height: 220%;&quot;&gt;Posture Prediction&lt;/span&gt;&lt;br&gt;&lt;span style=&quot;background-color: initial; line-height: 220%;&quot;&gt;Posture Scoring&lt;/span&gt;&lt;/font&gt;&lt;div&gt;&lt;br&gt;&lt;/div&gt;" style="text;html=1;align=center;verticalAlign=middle;resizable=0;points=[];autosize=1;strokeColor=none;fillColor=none;" vertex="1" parent="1">
          <mxGeometry x="85" y="280" width="190" height="200" as="geometry" />
        </mxCell>
        <mxCell id="CL_gljuOMsHu99j0wQHf-16" value="&lt;font style=&quot;font-size: 16px;&quot;&gt;Trained&lt;/font&gt;&lt;div&gt;&lt;font style=&quot;font-size: 16px;&quot;&gt;CNN&amp;nbsp;&lt;/font&gt;&lt;span style=&quot;font-size: 16px; background-color: initial;&quot;&gt;Model&lt;/span&gt;&lt;/div&gt;" style="text;html=1;align=center;verticalAlign=middle;resizable=0;points=[];autosize=1;strokeColor=none;fillColor=none;" vertex="1" parent="1">
          <mxGeometry x="335" y="480" width="110" height="50" as="geometry" />
        </mxCell>
      </root>
    </mxGraphModel>
  </diagram>
</mxfile>
